<?xml version="1.0" standalone="no"?>
<!DOCTYPE svg PUBLIC "-//W3C//DTD SVG 20010904//EN"
 "http://www.w3.org/TR/2001/REC-SVG-20010904/DTD/svg10.dtd">
<svg version="1.0" xmlns="http://www.w3.org/2000/svg"
 width="909.000000pt" height="909.000000pt" viewBox="0 0 909.000000 909.000000"
 preserveAspectRatio="xMidYMid meet">

<g transform="translate(0.000000,909.000000) scale(0.100000,-0.100000)"
fill="#000000" stroke="none">
<path d="M6430 5000 c-514 -296 -941 -543 -948 -550 -6 -6 -146 -88 -310 -182
-163 -94 -391 -226 -507 -292 l-210 -121 -3 -1249 c-2 -1129 -1 -1248 14
-1242 8 3 212 117 452 253 370 208 1495 842 2097 1181 94 53 212 118 262 146
l93 51 0 1273 c0 699 -1 1272 -2 1272 -2 -1 -424 -243 -938 -540z"/>
</g>
</svg>
