<?xml version="1.0" encoding="UTF-8" standalone="no"?>
<!DOCTYPE svg PUBLIC "-//W3C//DTD SVG 20010904//EN"
 "http://www.w3.org/TR/2001/REC-SVG-20010904/DTD/svg10.dtd">
<svg version="1.0" xmlns="http://www.w3.org/2000/svg"
 width="102.000000pt" height="103.000000pt" viewBox="0 0 102.000000 103.000000"
 preserveAspectRatio="xMidYMid meet">

<defs>
  <!-- Farbverläufe und Muster -->
  <radialGradient id="globeGradient" cx="50%" cy="50%" r="50%">
    <stop offset="0%" stop-color="#0A1F44"/>
    <stop offset="100%" stop-color="#1C3D7A"/>
  </radialGradient>
  <pattern id="landPattern" patternUnits="userSpaceOnUse" width="10" height="10">
    <path d="M0,5 L10,5" stroke="#0A1F44" stroke-width="0.5"/>
    <path d="M5,0 L5,10" stroke="#0A1F44" stroke-width="0.5"/>
  </pattern>
</defs>

<g transform="translate(0.000000,103.000000) scale(0.100000,-0.100000)"
fill="#0A1F44" stroke="none">

  <!-- Originale Pfade des Logos -->
  <path d="M404 1005 c-188 -41 -344 -197 -383 -383 -58 -278 133 -549 419 -593
  249 -39 490 125 555 376 68 266 -108 542 -384 601 -80 17 -127 17 -207 -1z"/>

  <!-- Anpassung: Weltkugel im Zentrum -->
  <circle cx="510" cy="510" r="100" fill="url(#globeGradient)" stroke="#0A1F44" stroke-width="10"/>
  <circle cx="510" cy="510" r="100" fill="url(#landPattern)" opacity="0.3"/>

  <!-- Elektronenbahnen um den Kern -->
  <g stroke="#1C3D7A" stroke-width="5" opacity="0.8">
    <ellipse cx="510" cy="510" rx="180" ry="70" fill="none"/>
    <ellipse cx="510" cy="510" rx="70" ry="180" fill="none" transform="rotate(45 510 510)"/>
    <ellipse cx="510" cy="510" rx="180" ry="70" fill="none" transform="rotate(90 510 510)"/>
  </g>

  <!-- Elektronen -->
  <circle cx="690" cy="510" r="15" fill="#FFD700" stroke="#0A1F44" stroke-width="3"/>
  <circle cx="510" cy="330" r="15" fill="#FFD700" stroke="#0A1F44" stroke-width="3"/>
  <circle cx="330" cy="510" r="15" fill="#FFD700" stroke="#0A1F44" stroke-width="3"/>
  <circle cx="510" cy="690" r="15" fill="#FFD700" stroke="#0A1F44" stroke-width="3"/>
  <circle cx="600" cy="420" r="15" fill="#FFD700" stroke="#0A1F44" stroke-width="3"/>
  <circle cx="420" cy="600" r="15" fill="#FFD700" stroke="#0A1F44" stroke-width="3"/>
  <circle cx="600" cy="600" r="15" fill="#FFD700" stroke="#0A1F44" stroke-width="3"/>
  <circle cx="420" cy="420" r="15" fill="#FFD700" stroke="#0A1F44" stroke-width="3"/>

</g>
</svg>
