<?xml version="1.0" standalone="no"?>
<!DOCTYPE svg PUBLIC "-//W3C//DTD SVG 20010904//EN"
 "http://www.w3.org/TR/2001/REC-SVG-20010904/DTD/svg10.dtd">
<svg version="1.0" xmlns="http://www.w3.org/2000/svg"
 width="102.000000pt" height="103.000000pt" viewBox="0 0 102.000000 103.000000"
 preserveAspectRatio="xMidYMid meet">

<defs>
  <!-- Gradient für den Hintergrund -->
  <radialGradient id="backgroundGradient" cx="50%" cy="50%" r="50%">
    <stop offset="0%" style="stop-color:#0A1F44; stop-opacity:1" />
    <stop offset="100%" style="stop-color:#000000; stop-opacity:1" />
  </radialGradient>
  <!-- Muster für die Länder -->
  <pattern id="landPattern" patternUnits="userSpaceOnUse" width="10" height="10">
    <path d="M0,5 L10,5" stroke="#1C3D7A" stroke-width="0.5"/>
    <path d="M5,0 L5,10" stroke="#1C3D7A" stroke-width="0.5"/>
  </pattern>
</defs>

<rect width="100%" height="100%" fill="url(#backgroundGradient)" />

<g transform="translate(0.000000,103.000000) scale(0.100000,-0.100000)"
fill="#0A1F44" stroke="none">

<!-- Originale Pfade mit angepassten Farben -->
<path d="M404 1005 c-188 -41 -344 -197 -383 -383 -58 -278 133 -549 419 -593
249 -39 490 125 555 376 68 266 -108 542 -384 601 -80 17 -127 17 -207 -1z"/>

<!-- Hinzufügen des Globus im Kern -->
<g transform="translate(400,500) scale(0.6)">
  <!-- Globus -->
  <circle cx="0" cy="0" r="80" fill="#1C3D7A" stroke="#0A1F44" stroke-width="4"/>
  <!-- Länder-Muster -->
  <circle cx="0" cy="0" r="80" fill="url(#landPattern)" opacity="0.5"/>
</g>

<!-- Restliche Pfade -->
<path d="M552 753 l-42 -28 37 -32 c22 -19 49 -32 65 -33 l27 0 -15 53 c-9 28
-19 55 -23 59 -4 5 -26 -4 -49 -19z"/>
<!-- Weitere Pfade hier einfügen -->

</g>
</svg>
