<?xml version="1.0" standalone="no"?>
<!DOCTYPE svg PUBLIC "-//W3C//DTD SVG 20010904//EN"
 "http://www.w3.org/TR/2001/REC-SVG-20010904/DTD/svg10.dtd">
<svg version="1.0" xmlns="http://www.w3.org/2000/svg"
 width="300.000000pt" height="300.000000pt" viewBox="0 0 300.000000 300.000000"
 preserveAspectRatio="xMidYMid meet">

<defs>
  <!-- Gradient für die Hauptform -->
  <radialGradient id="mainGradient" cx="50%" cy="50%" r="50%">
    <stop offset="0%" stop-color="#0A1F44" />
    <stop offset="100%" stop-color="#1C3D7A" />
  </radialGradient>
  
  <!-- Muster für die Kontinente -->
  <pattern id="continentPattern" patternUnits="userSpaceOnUse" width="10" height="10">
    <path d="M0,5 L10,5" stroke="#FFFFFF" stroke-width="0.5"/>
    <path d="M5,0 L5,10" stroke="#FFFFFF" stroke-width="0.5"/>
  </pattern>
  
  <!-- Gradient für Elektronenbahnen -->
  <linearGradient id="orbitGradient" x1="0%" y1="0%" x2="100%" y2="100%">
    <stop offset="0%" stop-color="#2E3A59" />
    <stop offset="100%" stop-color="#0A1F44" />
  </linearGradient>
</defs>

<g transform="translate(0.000000,300.000000) scale(0.100000,-0.100000)"
fill="url(#mainGradient)" stroke="none">
  <!-- Originalpfade beibehalten -->
  <path d="M404 1005 c-188 -41 -344 -197 -383 -383 -58 -278 133 -549 419 -593
  249 -39 490 125 555 376 68 266 -108 542 -384 601 -80 17 -127 17 -207 -1z
  m148 -112 c14 -16 33 -43 42 -61 16 -32 17 -32 47 -17 16 9 51 19 78 22 53 6
  76 -8 88 -55 6 -24 -6 -104 -22 -144 -5 -13 6 -23 50 -44 124 -61 125 -123 4
  -184 -32 -17 -59 -31 -59 -33 0 -1 7 -24 15 -51 21 -67 19 -108 -6 -140 -25
  -32 -59 -34 -129 -7 l-50 19 -20 -38 c-22 -43 -64 -80 -90 -80 -26 0 -68 37
  -90 80 l-20 38 -50 -19 c-70 -27 -104 -25 -129 7 -25 31 -27 73 -6 139 8 27
  12 51 9 54 -3 3 -31 19 -62 36 -31 16 -63 42 -72 58 -13 24 -13 30 0 55 9 15
  42 41 75 59 33 18 59 38 58 45 -1 7 -7 38 -14 68 -13 61 -8 100 18 125 20 21
  94 15 142 -10 l30 -15 20 39 c24 46 65 81 95 81 12 0 34 -12 48 -27z"/>
  <path d="M453 878 c-11 -13 -27 -36 -36 -53 l-15 -30 48 -32 49 -33 49 33 50
  33 -15 29 c-25 48 -54 75 -83 75 -15 0 -36 -10 -47 -22z"/>
  <path d="M237 819 c-30 -18 -39 -56 -27 -113 16 -79 18 -80 83 -66 l55 13 16
  63 c20 79 21 71 -12 88 -40 21 -94 28 -115 15z"/>
  <path d="M700 824 c-8 -3 -31 -12 -52 -21 l-36 -15 13 -42 c7 -22 16 -53 19
  -67 5 -21 14 -27 57 -37 28 -7 54 -12 59 -12 13 0 32 66 33 117 0 64 -37 95
  -93 77z"/>
  <path d="M377 720 l-15 -60 27 -1 c25 -1 25 -1 3 -8 -13 -3 -30 -17 -38 -31
  -15 -25 -15 -25 -8 -1 6 22 4 23 -28 16 -18 -4 -43 -11 -55 -16 l-23 -8 22
  -46 c24 -49 31 -54 48 -27 10 15 11 15 4 -3 -9 -25 -9 -45 0 -70 7 -18 6 -18
  -4 -2 -17 26 -24 21 -48 -28 l-22 -46 23 -8 c12 -5 37 -12 54 -16 29 -6 32 -4
  27 12 -5 16 -4 16 8 2 7 -8 22 -21 33 -27 20 -11 20 -11 -2 -12 -22 0 -22 0
  -7 -52 9 -29 19 -56 23 -60 3 -4 26 5 50 21 l43 29 -26 17 c-15 10 -25 20
  -22 22 2 3 16 -3 30 -12 24 -16 28 -16 51 -1 35 23 42 20 11 -5 l-27 -22 43
  -28 c23 -16 46 -25 49 -21 4 4 14 31 23 59 l15 53 -25 0 c-22 0 -24 2 -13 21
  9 18 8 24 -5 31 -10 6 -16 22 -16 43 0 19 -4 35 -9 35 -5 0 -24 12 -41 26
  -30 26 -31 26 -45 8 -8 -11 -15 -24 -15 -31 0 -19 -48 9 -54 32 -10 37 -6
  121 7 138 8 12 29 18 69 20 32 1 58 5 58 8 0 11 -36 39 -50 39 -8 0 -24 -10
  -37 -22 -13 -12 -25 -19 -29 -16 -3 3 9 16 26 28 l32 22 -44 29 c-24 16 -46
  29 -49 29 -4 0 -13 -27 -22 -60z m177 -339 c11 -4 15 -10 10 -13 -5 -4 -18 0
  -29 8 -20 15 -12 17 19 5z"/>
  <path d="M552 753 l-42 -28 37 -32 c22 -19 49 -32 65 -33 l27 0 -15 53 c-9
  28 -19 55 -23 59 -4 5 -26 -4 -49 -19z"/>
  <path d="M615 630 c20 -22 31 -20 22 5 -4 8 -14 15 -23 15 -16 0 -16 -2 1
  -20z"/>
  <path d="M655 609 c8 -35 40 -89 54 -89 4 0 17 20 29 45 l22 46 -23 8 c-12
  5 -37 12 -56 16 l-33 7 7 -33z"/>
  <path d="M430 621 c0 -5 6 -14 14 -20 10 -9 15 -8 19 3 3 8 3 17 0 20 -9 9
  -33 7 -33 -3z"/>
  <path d="M175 584 c-57 -27 -85 -56 -85 -89 0 -27 20 -46 85 -78 l49 -26 28
  51 c15 28 28 54 28 58 0 4 -12 30 -28 58 l-28 50 -49 -24z"/>
  <path d="M746 554 l-28 -54 28 -54 28 -53 35 14 c133 55 133 131 0 187 l-35
  14 -28 -54z"/>
  <path d="M674 517 c3 -10 6 -24 6 -30 0 -8 4 -7 12 1 9 10 8 16 -6 30 -18 16
  -19 16 -12 -1z"/>
  <path d="M682 453 c-11 -16 -23 -43 -27 -62 l-7 -33 33 7 c19 4 44 11 56 16
  l23 8 -22 46 c-12 25 -25 45 -29 45 -4 0 -16 -12 -27 -27z"/>
  <path d="M625 370 c-3 -5 -1 -10 4 -10 6 0 11 5 11 10 0 6 -2 10 -4 10 -3 0
  -8 -4 -11 -10z"/>
  <path d="M219 333 c-17 -52 -17 -116 0 -136 17 -21 79 -22 126 -3 40 17 40
  17 19 95 -16 58 -17 58 -66 70 -67 15 -65 16 -79 -26z"/>
  <path d="M693 357 c-45 -10 -50 -18 -69 -115 -6 -30 -4 -33 29 -47 47 -20
  111 -19 127 0 16 19 16 92 0 140 -12 38 -18 39 -87 22z"/>
  <path d="M447 238 l-47 -31 24 -41 c13 -23 35 -48 50 -56 23 -13 29 -13 52 0
  15 8 37 33 50 56 l24 41 -51 31 c-27 18 -51 32 -52 31 -1 0 -23 -15 -50 -31z"/>
</g>

<!-- Globus im Kern mit Kontinenten -->
<g transform="translate(150,150)">
  <!-- Globuskreis -->
  <circle cx="0" cy="0" r="30" fill="url(#globeGradient)" stroke="#0A1F44" stroke-width="1"/>
  
  <!-- Kontinente - Vereinfachte Darstellung -->
  <path d="M-10,-5 Q-5,-10 0,-5 Q5,0 0,5 Q-5,10 -10,5 Q-15,0 -10,-5" fill="url(#continentPattern)" opacity="0.6"/>
  <path d="M5,-15 Q10,-10 15,-15 Q20,-20 25,-15 Q20,-10 15,-15 Q10,-20 5,-15" fill="url(#continentPattern)" opacity="0.6"/>
  <path d="M-5,5 Q0,10 5,5 Q10,0 5,-5 Q0,-10 -5,-5 Q-10,0 -5,5" fill="url(#continentPattern)" opacity="0.6"/>
  
  <!-- Elektronenbahnen um den Globus -->
  <g stroke="url(#orbitGradient)" stroke-width="1" opacity="0.7">
    <ellipse cx="0" cy="0" rx="60" ry="20" fill="none"/>
    <ellipse cx="0" cy="0" rx="20" ry="60" fill="none" transform="rotate(45)"/>
    <ellipse cx="0" cy="0" rx="60" ry="20" fill="none" transform="rotate(90)"/>
  </g>
  
  <!-- Elektronen -->
  <circle cx="60" cy="0" r="3" fill="#FFD700" stroke="#0A1F44" stroke-width="0.5"/>
  <circle cx="0" cy="-60" r="3" fill="#FFD700" stroke="#0A1F44" stroke-width="0.5"/>
  <circle cx="-60" cy="0" r="3" fill="#FFD700" stroke="#0A1F44" stroke-width="0.5"/>
  <circle cx="0" cy="60" r="3" fill="#FFD700" stroke="#0A1F44" stroke-width="0.5"/>
  <circle cx="42.4" cy="42.4" r="3" fill="#FFD700" stroke="#0A1F44" stroke-width="0.5"/>
  <circle cx="-42.4" cy="42.4" r="3" fill="#FFD700" stroke="#0A1F44" stroke-width="0.5"/>
  <circle cx="42.4" cy="-42.4" r="3" fill="#FFD700" stroke="#0A1F44" stroke-width="0.5"/>
  <circle cx="-42.4" cy="-42.4" r="3" fill="#FFD700" stroke="#0A1F44" stroke-width="0.5"/>
</g>

</svg>
