<svg width="400" height="400" viewBox="0 0 200 200" xmlns="http://www.w3.org/2000/svg">
  <!-- Hintergrund mit radialem Verlauf -->
  <defs>
    <radialGradient id="backgroundGradient" cx="50%" cy="50%" r="50%">
      <stop offset="0%" style="stop-color:#001f3f; stop-opacity:1" />
      <stop offset="100%" style="stop-color:#000b1e; stop-opacity:1" />
    </radialGradient>
  </defs>
  <circle cx="100" cy="100" r="100" fill="url(#backgroundGradient)" />

  <!-- Globus -->
  <circle cx="100" cy="100" r="50" fill="#003366" stroke="#004080" stroke-width="1" />

  <!-- Kontinente (detaillierter) -->
  <path d="M85,65 C80,70 75,75 70,80 C65,85 70,90 75,95 C80,100 85,95 90,90 C95,85 90,80 85,75 C80,70 85,65 85,65 Z" fill="#005580" />
  <path d="M115,135 C120,130 125,125 130,120 C135,115 130,110 125,105 C120,100 115,105 110,110 C105,115 110,120 115,125 C120,130 115,135 115,135 Z" fill="#005580" />
  
  <!-- Mehr Details zu den Kontinenten -->
  <path d="M95,80 L92,85 L95,90 L98,85 Z" fill="#006699" />
  <path d="M105,120 L108,115 L105,110 L102,115 Z" fill="#006699" />

  <!-- Elektronenbahnen -->
  <g stroke="#0066cc" stroke-width="0.5" fill="none">
    <ellipse cx="100" cy="100" rx="70" ry="35" />
    <ellipse cx="100" cy="100" rx="35" ry="70" />
    <ellipse cx="100" cy="100" rx="80" ry="80" transform="rotate(30 100 100)" />
    <ellipse cx="100" cy="100" rx="80" ry="80" transform="rotate(60 100 100)" />
    <ellipse cx="100" cy="100" rx="70" ry="35" transform="rotate(90 100 100)" />
  </g>

  <!-- Elektronen -->
  <circle cx="170" cy="100" r="2" fill="#00ace6" />
  <circle cx="100" cy="30" r="2" fill="#00ace6" />
  <circle cx="30" cy="100" r="2" fill="#00ace6" />
  <circle cx="100" cy="170" r="2" fill="#00ace6" />
  <circle cx="147" cy="53" r="2" fill="#00ace6" />
  <circle cx="53" cy="147" r="2" fill="#00ace6" />
  <circle cx="147" cy="147" r="2" fill="#00ace6" />
  <circle cx="53" cy="53" r="2" fill="#00ace6" />
  <circle cx="130" cy="20" r="2" fill="#00ace6" />
  <circle cx="70" cy="180" r="2" fill="#00ace6" />

  <!-- Sterne im Hintergrund -->
  <g fill="#001f3f">
    <circle cx="20" cy="30" r="0.5" />
    <circle cx="50" cy="70" r="0.5" />
    <circle cx="80" cy="20" r="0.5" />
    <circle cx="120" cy="50" r="0.5" />
    <circle cx="160" cy="30" r="0.5" />
    <circle cx="180" cy="70" r="0.5" />
    <circle cx="30" cy="150" r="0.5" />
    <circle cx="70" cy="130" r="0.5" />
    <circle cx="110" cy="170" r="0.5" />
    <circle cx="150" cy="150" r="0.5" />
    <circle cx="190" cy="110" r="0.5" />
    <circle cx="10" cy="90" r="0.5" />
  </g>

  <!-- Glüheffekt um den Globus -->
  <defs>
    <filter id="glow">
      <feGaussianBlur stdDeviation="3.5" result="coloredBlur"/>
      <feMerge>
        <feMergeNode in="coloredBlur"/>
        <feMergeNode in="SourceGraphic"/>
      </feMerge>
    </filter>
  </defs>
  <circle cx="100" cy="100" r="50" fill="none" stroke="#0055aa" stroke-width="2" filter="url(#glow)" />

  <!-- Feinere Details auf dem Globus -->
  <g stroke="#0077b3" stroke-width="0.2">
    <line x1="100" y1="50" x2="100" y2="150" />
    <line x1="50" y1="100" x2="150" y2="100" />
    <circle cx="100" cy="100" r="25" fill="none" />
    <circle cx="100" cy="100" r="35" fill="none" />
    <circle cx="100" cy="100" r="45" fill="none" />
  </g>

  <!-- Schriftzug -->
  <text x="100" y="190" fill="#007acc" font-size="8" font-family="Arial" text-anchor="middle">Geheimdienstlicher Militärischer Sektor</text>
</svg>
