<svg width="200" height="200" viewBox="0 0 200 200" xmlns="http://www.w3.org/2000/svg">
  <!-- Hintergrundkreis -->
  <circle cx="100" cy="100" r="100" fill="#000b1e" />

  <!-- Globus -->
  <circle cx="100" cy="100" r="50" fill="#003366" stroke="#004080" stroke-width="2" />

  <!-- Kontinente (vereinfacht) -->
  <path d="M90,80 C85,75 80,85 75,80 C70,75 75,65 80,70 C85,75 90,70 90,80 Z" fill="#004d80" />
  <path d="M110,120 C115,125 120,115 125,120 C130,125 125,135 120,130 C115,125 110,130 110,120 Z" fill="#004d80" />

  <!-- Elektronenbahnen -->
  <g stroke="#0066cc" stroke-width="1" fill="none">
    <ellipse cx="100" cy="100" rx="70" ry="35" />
    <ellipse cx="100" cy="100" rx="35" ry="70" />
    <ellipse cx="100" cy="100" rx="80" ry="80" transform="rotate(45 100 100)" />
  </g>

  <!-- Elektronen -->
  <circle cx="170" cy="100" r="3" fill="#00ace6" />
  <circle cx="100" cy="30" r="3" fill="#00ace6" />
  <circle cx="30" cy="100" r="3" fill="#00ace6" />
  <circle cx="100" cy="170" r="3" fill="#00ace6" />
  <circle cx="141" cy="141" r="3" fill="#00ace6" />
  <circle cx="59" cy="59" r="3" fill="#00ace6" />
</svg>
